<?xml version="1.0" encoding="utf-8"?>
<!-- Generator: Adobe Illustrator 19.2.1, SVG Export Plug-In . SVG Version: 6.00 Build 0)  -->
<svg version="1.1" id="Layer_1" xmlns="http://www.w3.org/2000/svg" xmlns:xlink="http://www.w3.org/1999/xlink" x="0px" y="0px"
	 viewBox="0 0 24.1 20.2" style="enable-background:new 0 0 24.1 20.2;" xml:space="preserve">
<path d="M18.1,3.1c1.8,0,3.6,0.7,5.5,2c0,7,0,5.4,0,12c-2-1.2-3.7-1.8-5.5-1.8c-1.8,0-3.5,0.6-5.5,1.8V5.1
	C14.5,3.8,16.3,3.1,18.1,3.1z M6.2,3.1c1.8,0,3.5,0.6,5.2,1.9v12c-2-1.2-4-1.8-5.9-1.8c-1.8,0-3.5,0.6-5,1.7V5.1
	C2.5,3.8,4.4,3.1,6.2,3.1L6.2,3.1z"/>
</svg>
