<?xml version="1.0" encoding="utf-8"?>
<!-- Generator: Adobe Illustrator 15.0.0, SVG Export Plug-In . SVG Version: 6.00 Build 0)  -->
<!DOCTYPE svg PUBLIC "-//W3C//DTD SVG 1.1//EN" "http://www.w3.org/Graphics/SVG/1.1/DTD/svg11.dtd">
<svg version="1.1" id="XL_icons" xmlns="http://www.w3.org/2000/svg" xmlns:xlink="http://www.w3.org/1999/xlink" x="0px" y="0px"
	 width="612px" height="792px" viewBox="0 0 612 792" enable-background="new 0 0 612 792" xml:space="preserve">
<title>Icon</title>
<path d="M495.874,404.236h-79.766v-75.429h79.33v75.429H495.874z M495.874,519.98h-79.766v-75.862h79.33v75.429L495.874,519.98z
	 M495.874,635.291h-79.766v-75.429h79.33v75.429H495.874z M344.148,404.236H262.65v-75.429h79.331v75.429H344.148z M344.148,519.98
	H262.65v-75.862h79.331v75.429L344.148,519.98z M344.148,635.291H262.65v-75.429h79.331v75.429H344.148z M192.423,404.236h-79.764
	v-75.429h79.764V404.236L192.423,404.236z M192.423,519.98h-79.764v-75.862h79.764v75.429V519.98z M192.423,635.291h-79.764v-75.429
	h79.764V635.291L192.423,635.291z M126.965,151.939h356.77v94.503h-356.77V151.939z M24.225,738.032h563.55V53.969H24.225V738.032z"
	/>
</svg>
