<svg id="Layer_1" data-name="Layer 1" xmlns="http://www.w3.org/2000/svg" viewBox="0 0 48 48"><path d="M47.9743,25.38152a0.54486,0.54486,0,0,0-.23513-0.45772c-0.14839-.136-1.10095-0.77935-1.10095-0.77935-2.106-4.33455-8.11143-6.97521-11.64914-7.988l0.0006,0.00007a0.99416,0.99416,0,0,1,.19467-0.44274c0.02793-.06031-0.02779-0.08351-0.116-0.10672a0.22973,0.22973,0,0,0-.19948,0c-0.06488.0371-.31543,0.15772-0.39429,0.2146a0.31794,0.31794,0,0,1-.27367.00343,0.54234,0.54234,0,0,0-.27673.05711L33.918,15.88076c-4.46274-1.00195-12.26865-.77927-14.65838.62388-2.75536,1.618-5.45646,3.59764-5.71632,3.80176a0.85588,0.85588,0,0,1-.57513.167c-5.335.4268-8.26683,1.12262-9.73894,2.06281a4.5188,4.5188,0,0,0-1.92983,2.31953,0.45345,0.45345,0,0,1-.266.34024,5.20435,5.20435,0,0,0-.8846.54429c-0.08656.09894-.15451,0.15466-0.1484,1.32982A5.37122,5.37122,0,0,0,.421,29.39585a6.80217,6.80217,0,0,0,.87835.433c0.1423,0.03091,2.44313.29688,2.89475,0.29688,0.0499,0,.4698-0.004,1.177-0.01113a3.93491,3.93491,0,0,0,7.44566-.07732c8.73794-.09188,21.15033-0.22413,22.46282-0.23818a3.93455,3.93455,0,0,0,7.65518-.18012,10.63606,10.63606,0,0,0,4.27242-.452c0.07421-.14846.71744-1.3237,0.71744-1.41027S47.83811,27.163,47.83811,27.163A4.91843,4.91843,0,0,0,47.9743,25.38152Z"/></svg>