<svg id="XL_icons" data-name="XL icons" xmlns="http://www.w3.org/2000/svg" viewBox="0 0 16 16"><defs><style>.cls-1{fill:#221f1f;}</style></defs><title>Icon</title><path class="cls-1" d="M2.49812,8.11121l5.382-4.19232,5.28625,4.18817a0.90793,0.90793,0,0,0,.56653.19928,0.92242,0.92242,0,0,0,.74646-0.38556,1.00322,1.00322,0,0,0-.17871-1.36792L7.88985,1.47334l-6.51373,5.074a1.0032,1.0032,0,0,0-.18945,1.36646A0.9126,0.9126,0,0,0,2.49812,8.11121Zm5.39172-.94427L1.37611,12.241a1.00327,1.00327,0,0,0-.18945,1.36652,0.91264,0.91264,0,0,0,1.31146.19733l5.382-4.19232,5.28625,4.18823A0.90829,0.90829,0,0,0,13.73286,14a0.92249,0.92249,0,0,0,.74646-0.38562,1.00323,1.00323,0,0,0-.17871-1.36792Z"/></svg>