<svg id="XL_icons" data-name="XL icons" xmlns="http://www.w3.org/2000/svg" viewBox="0 0 24 24"><defs><style>.cls-1{fill:#221f1f;}</style></defs><title>Icon</title><path class="cls-1" d="M5.37179,19.68139a14.6666,14.6666,0,0,0,5.63179,1.74846V24h2.43254V21.32135c3.25288-.51928,5.19208-2.62434,5.19208-5.73979,0-2.81558-1.66661-4.31924-5.19208-5.41339V5.33078a12.8927,12.8927,0,0,1,3.38741,1.09288l1.1496-3.03385a15.75448,15.75448,0,0,0-4.537-1.28476V0H11.00358V2.16C7.504,2.62434,5.72706,4.78434,5.72706,7.73558c-0.02651,2.40606,1.44942,4.18244,4.4007,5.16733l0.87582,0.29924v5.0304A11.72817,11.72817,0,0,1,6.548,16.70236ZM9.28155,7.408a2.07239,2.07239,0,0,1,1.77632-2.242V9.64952C9.609,9.13011,9.28155,8.39192,9.28155,7.408Zm5.76813,8.50042a2.41644,2.41644,0,0,1-1.69617,2.37891V13.77688C14.47355,14.29629,15.04968,14.89756,15.04968,15.90846Z"/></svg>