<svg id="XL_icons" data-name="XL icons" xmlns="http://www.w3.org/2000/svg" viewBox="0 0 16 16"><defs><style>.cls-1{fill:#221f1f;fill-rule:evenodd;}</style></defs><title>Icon</title><path class="cls-1" d="M15.98116,8.12469a0.56345,0.56345,0,0,1-.01138.06985,0.22969,0.22969,0,0,1-.01491.02364,0.4008,0.4008,0,0,1-.01128.04032C14.34651,11.30826,11.66609,13.48974,8,13.48974S1.65359,11.30444.05641,8.25447A0.30947,0.30947,0,0,1,.04513,8.214C0.0415,8.20523.03335,8.2,0.03022,8.191A0.51232,0.51232,0,0,1,.01942,8.12037,0.53354,0.53354,0,0,1,0,7.99814,0.55294,0.55294,0,0,1,.01942,7.87443,0.54394,0.54394,0,0,1,.03022,7.80448c0.00314-.00932.01128-0.01413,0.01491-0.023A0.3582,0.3582,0,0,1,.05641,7.74072C1.65359,4.691,4.33391,2.51026,8,2.51026s6.34646,2.1851,7.94354,5.23428a0.3885,0.3885,0,0,1,.01128.04042c0.00383,0.009.01187,0.01452,0.01491,0.02354a0.59334,0.59334,0,0,1,.01138.06995A0.41179,0.41179,0,0,1,15.98116,8.12469ZM7.98769,3.97462A4.02711,4.02711,0,1,0,12.02259,8.002,4.03036,4.03036,0,0,0,7.98769,3.97462ZM7.988,10.24043A2.23921,2.23921,0,1,1,10.23126,8.002,2.24091,2.24091,0,0,1,7.988,10.24043Z"/></svg>