<svg id="Layer_1" data-name="Layer 1" xmlns="http://www.w3.org/2000/svg" viewBox="0 0 48 48"><defs><style>.cls-1{fill:#231f20;}</style></defs><title>vw_globalNav</title><path class="cls-1" d="M21.34,17.53a3.46,3.46,0,1,0,2.42,5.95l0,0,0.1-.1a3.43,3.43,0,0,0,1-2.36A3.47,3.47,0,0,0,21.34,17.53Z"/><path class="cls-1" d="M30.24,9.95A9.52,9.52,0,0,0,24,12.27,9.55,9.55,0,0,0,11.27,26.52H11.22L24,38.05,36.15,27A9.56,9.56,0,0,0,30.24,9.95Zm-0.7,19-0.19.19a1.56,1.56,0,0,1-2.16-.28l-3.07-3.11a5.38,5.38,0,0,1-2.78.78,5.47,5.47,0,1,1,4.81-2.93l3.13,3.17A1.58,1.58,0,0,1,29.54,28.91Z"/></svg>