<svg id="XL_icons" data-name="XL icons" xmlns="http://www.w3.org/2000/svg" viewBox="0 0 20 20"><defs><style>.cls-1{fill:#231f20;}</style></defs><title>Icon</title><path class="cls-1" d="M10.454,0.31177C5.16614,0.31177,2.5,4.103,2.5,7.26451c0,1.91419.72459,3.61714,2.27913,4.25194a0.3833,0.3833,0,0,0,.5571-0.27865c0.05144-.19545.17308-0.68823,0.22741-0.89327a0.53977,0.53977,0,0,0-.1601-0.62012,3.21041,3.21041,0,0,1-.73467-2.18285,5.27125,5.27125,0,0,1,5.4797-5.33048c2.98873,0,4.63087,1.8263,4.63087,4.26533,0,3.20906-1.42021,5.91744-3.52845,5.91744a1.72249,1.72249,0,0,1-1.75659-2.1439,23.88281,23.88281,0,0,0,.98246-3.94922,1.49028,1.49028,0,0,0-1.501-1.67089c-1.1902,0-2.1463,1.23125-2.1463,2.88077A4.28263,4.28263,0,0,0,7.1844,9.27168s-1.218,5.1608-1.4315,6.06466a12.48915,12.48915,0,0,0-.03336,4.22927,0.1479,0.1479,0,0,0,.26447.06382,11.87967,11.87967,0,0,0,2.00937-3.64221C8.12971,15.492,8.77619,12.928,8.77619,12.928a3.19038,3.19038,0,0,0,2.71867,1.38735c3.57779,0,6.00513-3.26169,6.00513-7.62769C17.5,3.38629,14.70372.31177,10.454,0.31177Z"/></svg>