<svg id="XL_icons" data-name="XL icons" xmlns="http://www.w3.org/2000/svg" viewBox="0 0 20 20"><defs><style>.cls-1{fill:#231f20;}</style></defs><title>Icon</title><path class="cls-1" d="M19,4.41751a7.38132,7.38132,0,0,1-2.12091.58149,3.70408,3.70408,0,0,0,1.62363-2.04311,7.39182,7.39182,0,0,1-2.345.89608A3.69651,3.69651,0,0,0,9.86482,7.22028a10.48539,10.48539,0,0,1-7.61171-3.8586A3.69722,3.69722,0,0,0,3.396,8.29216a3.67657,3.67657,0,0,1-1.67268-.462L1.723,7.87662a3.69536,3.69536,0,0,0,2.96233,3.62123,3.70021,3.70021,0,0,1-1.66766.06323,3.6965,3.6965,0,0,0,3.44966,2.56462A7.40939,7.40939,0,0,1,1.88091,15.7064,7.49879,7.49879,0,0,1,1,15.655a10.45458,10.45458,0,0,0,5.66089,1.65909A10.43551,10.43551,0,0,0,17.16806,6.807q0-.24022-0.01074-0.478A7.49838,7.49838,0,0,0,19,4.41751Z"/></svg>