<svg id="XL_icons" data-name="XL icons" xmlns="http://www.w3.org/2000/svg" viewBox="0 0 20 20"><defs><style>.cls-1{fill:#231f20;}</style></defs><title>Icon</title><path class="cls-1" d="M19.79788,6.02087a4.29382,4.29382,0,0,0-.79486-1.9754,2.867,2.867,0,0,0-2.00342-.843c-2.7981-.20135-6.9953-0.20135-6.9953-0.20135H9.99569s-4.19708,0-6.9953.20135a2.86743,2.86743,0,0,0-2.00342.843,4.29206,4.29206,0,0,0-.79456,1.9754,29.953,29.953,0,0,0-.2,3.221v1.50989a29.95152,29.95152,0,0,0,.2,3.221A4.29159,4.29159,0,0,0,.997,15.94818a3.40007,3.40007,0,0,0,2.20471.85071C4.80142,16.95148,10,16.99878,10,16.99878s4.20148-.00629,6.99957-0.20758a2.86682,2.86682,0,0,0,2.00342-.843,4.29335,4.29335,0,0,0,.79486-1.9754,29.99657,29.99657,0,0,0,.19971-3.221V9.24188A29.99808,29.99808,0,0,0,19.79788,6.02087ZM7.93569,12.58148L7.93478,6.98956l5.40283,2.80573Z"/></svg>