<svg id="XL_icons" data-name="XL icons" xmlns="http://www.w3.org/2000/svg" viewBox="0 0 20 20"><defs><style>.cls-1{fill:#231f20;fill-rule:evenodd;}</style></defs><title>Icon</title><path class="cls-1" d="M15.7697,8.84553H14.46387a4.61536,4.61536,0,1,1-8.92745,0H4.2304V15.1922a0.5769,0.5769,0,0,0,.5775.57645H15.1921a0.577,0.577,0,0,0,.5776-0.57645V8.84553Zm0-4.0381a0.57726,0.57726,0,0,0-.5776-0.57693H13.4617a0.57692,0.57692,0,0,0-.57683.57693V6.53849a0.57684,0.57684,0,0,0,.57683.57683h1.7304a0.57718,0.57718,0,0,0,.5776-0.57683V4.80742ZM10,7.11532a2.88468,2.88468,0,1,0,2.88492,2.88444A2.88434,2.88434,0,0,0,10,7.11532M15.7697,17.4999H4.2304A1.7309,1.7309,0,0,1,2.5,15.76865V4.23049A1.73059,1.73059,0,0,1,4.2304,2.5001H15.7697A1.73032,1.73032,0,0,1,17.5,4.23049V15.76865a1.73063,1.73063,0,0,1-1.7303,1.73126"/></svg>