<?xml version="1.0" encoding="utf-8"?>
<!-- Generator: Adobe Illustrator 15.0.0, SVG Export Plug-In . SVG Version: 6.00 Build 0)  -->
<!DOCTYPE svg PUBLIC "-//W3C//DTD SVG 1.1//EN" "http://www.w3.org/Graphics/SVG/1.1/DTD/svg11.dtd">
<svg version="1.1" id="M_S_icons" xmlns="http://www.w3.org/2000/svg" xmlns:xlink="http://www.w3.org/1999/xlink" x="0px" y="0px"
	 width="792px" height="612px" viewBox="0 0 792 612" enable-background="new 0 0 792 612" xml:space="preserve">
<title>Icon</title>
<path fill="#221F1F" d="M691.433,584.118l-8.351,8.349c-29.051,21.981-70.356,16.633-92.85-12.022L456.636,446.848
	c-36.058,21.844-77.41,33.396-119.569,33.399C206.114,482.092,98.46,377.428,96.616,246.475
	C94.771,115.522,199.434,7.869,330.387,6.024C461.34,4.18,568.994,108.843,570.837,239.795c0.016,1.105,0.024,2.21,0.024,3.316
	c-0.03,38.379-9.31,76.186-27.054,110.218L677.404,490.6C706.313,513.021,712.491,554.204,691.433,584.118z M338.402,111.854
	c-71.57-0.308-129.836,57.463-130.143,129.032c-0.307,71.57,57.463,129.837,129.033,130.143
	c33.961,0.145,66.622-13.046,90.954-36.737l0,0l3.675-3.672c49.436-51.5,47.762-133.323-3.736-182.758
	C404.046,124.69,371.863,111.783,338.402,111.854z"/>
</svg>
