<?xml version="1.0" encoding="utf-8"?>
<!-- Generator: Adobe Illustrator 19.2.1, SVG Export Plug-In . SVG Version: 6.00 Build 0)  -->
<svg version="1.1" id="Layer_1" xmlns="http://www.w3.org/2000/svg" xmlns:xlink="http://www.w3.org/1999/xlink" x="0px" y="0px"
	 viewBox="0 0 28.6 20.6" style="enable-background:new 0 0 28.6 20.6;" xml:space="preserve">
<style type="text/css">
	.st0{fill:#010101;}
</style>
<path id="Shape_131_copy_2" class="st0" d="M2.9,15.9h22.9c1,0,1.8,0.8,1.8,1.8c0,1-0.8,1.8-1.8,1.8l0,0H2.9c-1,0-1.8-0.8-1.8-1.8
	C1,16.8,1.9,15.9,2.9,15.9L2.9,15.9z M2.9,8.5h22.9c1,0,1.8,0.8,1.8,1.8s-0.8,1.8-1.8,1.8H2.9c-1,0-1.9-0.8-1.9-1.8
	C1,9.3,1.8,8.5,2.9,8.5C2.8,8.5,2.9,8.5,2.9,8.5L2.9,8.5z M2.9,1h22.9c1,0,1.8,0.8,1.8,1.8s-0.8,1.8-1.8,1.8H2.9
	C1.9,4.7,1,3.9,1,2.9C1,1.9,1.8,1,2.9,1C2.8,1,2.9,1,2.9,1L2.9,1z"/>
</svg>
