<svg id="XL_icons" data-name="XL icons" xmlns="http://www.w3.org/2000/svg" viewBox="0 0 20 20"><defs><style>.cls-1{fill:#221f1f;}</style></defs><title>Icon</title><path class="cls-1" d="M18.67855,11.14267l-1.323-.75835L14.98909,11.9814l-3.46036-1.98126,3.4995-2.00331,2.35815,1.60073,1.251-.71665,0.0412-.06027-2.32821-1.581L19,5.72214,18.24252,4.40589,15.55573,5.94412,15.36725,3.10031l-1.32353.75776,0.18759,2.84434L10.76117,8.68908V4.74362l2.56566-1.2522V1.96872L10.76117,3.22V0.5H9.23936V3.17727L6.7057,1.95008l-0.03165.06574V3.45467L9.23936,4.69821V8.68908L5.81011,6.72541,5.998,3.88106,4.67389,3.12329,4.4857,5.96706,1.75777,4.40589,1,5.72214,3.69026,7.2626l-2.32791,1.581L1.4032,8.90443,2.65477,9.62115,5.01261,8.01977l3.459,1.98038L5.05233,11.95782,2.68671,10.36139l-1.32436.75771,2.36616,1.59709L1,14.27787l0.75777,1.31742,2.6905-1.54082,0.19339,2.80419,0.07367-.00576,1.251-.71666L5.77069,13.29705,9.23936,11.3115v4.0368L6.67405,16.59249v1.43938L6.7057,18.09708l2.53366-1.22726V19.5h1.52181V16.82619l2.56566,1.25219V16.55574L10.76117,15.303V11.3115l3.51016,2.00966-0.19686,2.83858,1.25163,0.71672,0.0728,0.00571L15.59258,14.078l2.64994,1.51724L19,14.27787l-2.68708-1.53875Z"/></svg>