<svg id="XL_icons" data-name="XL icons" xmlns="http://www.w3.org/2000/svg" viewBox="0 0 20 20"><defs><style>.cls-1{fill:#221f1f;fill-rule:evenodd;}</style></defs><title>Icon</title><path class="cls-1" d="M10,19a9,9,0,1,1,9-9A9,9,0,0,1,10,19Zm0.018-7.23595A1.74605,1.74605,0,1,0,8.27195,10.018,1.746,1.746,0,0,0,10.018,11.76405Zm-6.78915-.81538A6.82465,6.82465,0,0,0,6.43874,15.812a2.41348,2.41348,0,0,0,.44357.12592,1.68536,1.68536,0,0,0,1.18521-.09115,0.46789,0.46789,0,0,0,.20713-0.35346C8.266,15.443,8.25961,15.39,8.25238,15.33419,8.225,15.12312,8.04977,13.9778,7.99063,13.487a1.02968,1.02968,0,0,0-.45237-0.79215H7.543a3.61533,3.61533,0,0,1-.838-1.1306A1.02236,1.02236,0,0,0,5.94646,11.244c-0.3343-.0385-2.198-0.2363-2.58751-0.26646a0.33451,0.33451,0,0,1-.069-0.03252A0.58551,0.58551,0,0,0,3.22885,10.94867ZM9.982,3.16035A6.82407,6.82407,0,0,0,3.34521,8.39973,15.13482,15.13482,0,0,0,6.8605,7.94082a0.67462,0.67462,0,0,0,.10786-0.061c0.06408-.04621.1319-0.10228,0.19918-0.16138L7.1721,7.72028C7.21431,7.68291,7.25635,7.644,7.29726,7.605a3.64437,3.64437,0,0,1,.30595-0.30378c0.024-.02386.04384-0.04307,0.05806-0.05557a0.63062,0.63062,0,0,1,.07515-0.0565,3.62084,3.62084,0,0,1,5.02.47778,2.77925,2.77925,0,0,0,.245.20448,12.48941,12.48941,0,0,0,3.61719.52748A6.82407,6.82407,0,0,0,9.982,3.16035Zm6.69758,7.7849a0.33427,0.33427,0,0,1-.06853.03226c-0.38954.03016-2.25322,0.228-2.58751,0.26646a1.11269,1.11269,0,0,0-.72719.27881,3.63509,3.63509,0,0,1-1.03055,1.3223,0.95069,0.95069,0,0,0-.28643.642c-0.04581.38018-.16127,1.15289-0.22371,1.58007a0.01934,0.01934,0,0,1,.01447.01772,0.76485,0.76485,0,0,0,.19448.762,1.68536,1.68536,0,0,0,1.18521.09115,2.21585,2.21585,0,0,0,.27882-0.06853,6.82485,6.82485,0,0,0,3.30682-4.923c-0.0136-.00094-0.02731-0.00171-0.04143-0.00168Z"/></svg>