<svg id="XL_icons" data-name="XL icons" xmlns="http://www.w3.org/2000/svg" viewBox="0 0 20 20"><defs><style>.cls-1{fill:#221f1f;fill-rule:evenodd;}</style></defs><title>Icon</title><path class="cls-1" d="M10,19a9,9,0,1,1,9-9A9,9,0,0,1,10,19Zm1.2187-2.9829a6.22471,6.22471,0,0,0,3.4016-2.019l-3.4016-1.9638v3.9828ZM3.6875,9.9218a6.16113,6.16113,0,0,0,.4428,2.2863L7.8251,10.075,4.0425,7.8911A6.15757,6.15757,0,0,0,3.6875,9.9218ZM8.9688,3.7836A6.24419,6.24419,0,0,0,5.1521,5.9338L8.9688,8.1373V3.7836Zm0,8.229-3.633,2.0975a6.23983,6.23983,0,0,0,3.633,1.9501V12.0126Zm1.0937-2.9188a0.96875,0.96875,0,1,0,.9688.9686A0.96863,0.96863,0,0,0,10.0625,9.0938Zm1.1562-5.2671v4.289l3.5784-2.066A6.23212,6.23212,0,0,0,11.2187,3.8267ZM15.849,8.0404L12.3249,10.075l3.4507,1.9922A6.08262,6.08262,0,0,0,15.849,8.0404Z"/></svg>