<?xml version="1.0" standalone="no"?>
<!DOCTYPE svg PUBLIC "-//W3C//DTD SVG 1.1//EN" "http://www.w3.org/Graphics/SVG/1.1/DTD/svg11.dtd">
<svg xmlns="http://www.w3.org/2000/svg">
<metadata>Copyright (C) 2017 by original authors @ fontello.com</metadata>
<defs>
<font id="vw-icons" horiz-adv-x="1000" >
<font-face font-family="vw-icons" font-weight="400" font-stretch="normal" units-per-em="1000" ascent="850" descent="-150" />
<missing-glyph horiz-adv-x="1000" />
<glyph glyph-name="arrow-open-down" unicode="&#xe800;" d="M27 272l469-338 477 338a63 63 0 0 1 13 90 71 71 0 0 1-96 14l-319-227v546a71 71 0 0 1-141 0v-550l-320 230a71 71 0 0 1-41 14 70 70 0 0 1-55-26 63 63 0 0 1 13-91z" horiz-adv-x="1000" />

<glyph glyph-name="arrow-solid-left-right" unicode="&#xe801;" d="M689 344l280 255-280 256v-175h-573v-154h573v-182z m-378 12l-280-255 280-256v175h573v147h-573v189z" horiz-adv-x="1000" />

<glyph glyph-name="arrowhead-left-right" unicode="&#xe802;" d="M172 350l199 244a63 63 0 0 1-98 80l-263-324 263-323a63 63 0 0 1 98 79z m556 324a63 63 0 0 1-98-80l198-244-198-244a63 63 0 0 1 98-79l262 323z" horiz-adv-x="1000" />

<glyph glyph-name="arrowhead-thick-left" unicode="&#xe803;" d="M642-124a70 70 0 0 1 49 119l-345 345 345 345a70 70 0 1 1-99 98l-443-443 443-444a70 70 0 0 1 50-20z" horiz-adv-x="1000" />

<glyph glyph-name="arrowhead-thick-right" unicode="&#xe804;" d="M289-114a70 70 0 0 0-50 119l345 345-345 345a70 70 0 0 0 99 99l443-444-443-444a70 70 0 0 0-49-20z" horiz-adv-x="1000" />

<glyph glyph-name="arrowhead-thin-right" unicode="&#xe805;" d="M313-53a41 41 0 0 0 8 25l283 378-283 378a41 41 0 0 0 66 50l320-428-320-428a41 41 0 0 0-74 25z" horiz-adv-x="1000" />

<glyph glyph-name="asterisk" unicode="&#xe806;" d="M1000 421v-142h-286v-143h-143v-286h-142v286h-143v143h-286v142h286v143h143v286h142v-286h143v-143h286z m-143-428h-143v143h143v-143z m-714 0v143h143v-143h-143z m0 714h143v-143h-143v143z m714 0v-143h-143v143h143z" horiz-adv-x="1000" />

<glyph glyph-name="brochure" unicode="&#xe807;" d="M896 697c89 0 178-35 272-99 0-347 0-268 0-594-99 59-183 89-272 89-89 0-173-30-272-89v594c94 64 183 99 272 99z m-589 0c89 0 173-30 257-94v-595c-99 60-198 90-292 90-89 0-173-30-247-85v585c99 64 193 99 282 99l0 0z" horiz-adv-x="1193" />

<glyph glyph-name="calculator" unicode="&#xe808;" d="M626 340h-101v95h101v-95h0z m0-146h-101v95h101v-95l0 0z m0-146h-101v95h101v-95h0z m-191 292h-103v95h100v-95h3z m0-146h-103v95h100v-95l3 0z m0-146h-103v95h100v-95h3z m-192 292h-101v95h101v-95l0 0z m0-146h-101v95h101v-95 0z m0-146h-101v95h101v-95l0 0z m-83 610h451v-119h-451v119z m-129-740h711v864h-711v-864z" horiz-adv-x="773" />

<glyph glyph-name="car" unicode="&#xe809;" d="M1000 321a11 11 0 0 1-5 10c-3 3-23 16-23 16-44 90-169 145-243 166l0 0a21 21 0 0 0 4 10c1 1-1 1-2 2a5 5 0 0 1-5 0c-1-1-6-3-8-5a7 7 0 0 0-5 0 11 11 0 0 1-6-1l0 0c-93 21-256 16-306-13-57-34-113-75-119-79a18 18 0 0 0-12-3c-111-9-172-24-203-43a94 94 0 0 1-40-49 9 9 0 0 0-5-7 108 108 0 0 1-19-11c-2-2-3-3-3-28a112 112 0 0 1 9-48 142 142 0 0 1 18-9c3-1 51-7 60-7 1 0 10 1 25 1a82 82 0 0 1 155 1c182 2 441 5 468 5a82 82 0 0 1 160 4 222 222 0 0 1 89 9c1 3 14 28 14 30s-1 12-1 12a103 103 0 0 1 3 37z" horiz-adv-x="1000" />

<glyph glyph-name="caret-double" unicode="&#xe80a;" d="M156 343l337 262 330-262a57 57 0 0 1 35-12 58 58 0 0 1 47 24 63 63 0 0 1-11 85l-401 318-407-317a63 63 0 0 1-12-86 57 57 0 0 1 82-12z m337 59l-407-317a63 63 0 0 1-12-86 57 57 0 0 1 82-12l337 262 330-262a57 57 0 0 1 35-12 58 58 0 0 1 47 24 63 63 0 0 1-11 86z" horiz-adv-x="1000" />

<glyph glyph-name="caron-single" unicode="&#xe80b;" d="M92 550a42 42 0 0 0 25-9l383-286 383 286a42 42 0 0 0 50-67l-433-324-433 324a42 42 0 0 0 25 76z" horiz-adv-x="1000" />

<glyph glyph-name="dollar" unicode="&#xe80c;" d="M224 30a611 611 0 0 1 235-73v-107h101v112c135 21 216 109 216 239 0 117-69 180-216 225v202a537 537 0 0 0 141-46l48 127a656 656 0 0 1-189 53v88h-101v-90c-146-19-220-109-220-232-1-101 60-175 183-216l37-12v-210a489 489 0 0 0-186 64z m163 511a86 86 0 0 0 74 94v-187c-61 22-74 52-74 93z m240-354a101 101 0 0 0-71-99v188c47-22 71-47 71-89z" horiz-adv-x="1000" />

<glyph glyph-name="ellipsis" unicode="&#xe80d;" d="M232 444a94 94 0 1 1 94-94 94 94 0 0 1-94 94z m270 0a94 94 0 1 1 94-94 94 94 0 0 1-94 94z m266 0a94 94 0 1 1 93-94 94 94 0 0 1-93 94z" horiz-adv-x="1000" />

<glyph glyph-name="eye-open" unicode="&#xe80e;" d="M999 342a35 35 0 0 0-1-4 14 14 0 0 0-1-2 25 25 0 0 0 0-2c-100-191-268-327-497-327s-397 137-496 327a19 19 0 0 0-1 3c0 0-1 1-1 1a32 32 0 0 0-1 5 33 33 0 0 0-1 7 35 35 0 0 0 1 8 34 34 0 0 0 1 4c0 1 1 1 1 2a22 22 0 0 0 1 2c99 191 267 327 496 327s397-136 497-327a24 24 0 0 0 0-3c0 0 1 0 1-1a37 37 0 0 0 1-4 26 26 0 0 0 0-16z m-500 260a252 252 0 1 1 252-252 252 252 0 0 1-252 252z m0-392a140 140 0 1 0 141 140 140 140 0 0 0-141-140z" horiz-adv-x="1000" />

<glyph glyph-name="gear" unicode="&#xe80f;" d="M500 855l-437-252v-506l437-252 438 252v506z m5-710a198 198 0 1 0 198 197 198 198 0 0 0-198-197z" horiz-adv-x="1000" />

<glyph glyph-name="heart-with-magnifier" unicode="&#xe810;" d="M445 485a72 72 0 1 1 50-124l0 0 2 2a72 72 0 0 1 21 49 72 72 0 0 1-73 73z m185 158a198 198 0 0 1-130-49 199 199 0 0 1-265-296h-1l266-241 253 231a199 199 0 0 1-123 355z m-15-396l-3-4a33 33 0 0 0-45 6l-64 65a112 112 0 0 0-58-17 114 114 0 1 0 100 61l65-66a33 33 0 0 0 5-44z" horiz-adv-x="1000" />

<glyph glyph-name="key" unicode="&#xe811;" d="M359 550a72 72 0 1 1 71-71 71 71 0 0 1-71 71m422-472h-105v42h-70v57h-71v35h-70v68a172 172 0 0 0-70-15 179 179 0 1 0 175 178 180 180 0 0 0-14-71h50v-36l175-143v-115z" horiz-adv-x="1000" />

<glyph glyph-name="left-align" unicode="&#xe812;" d="M724 756h-693v-180h693v180z m-693-812h449v180h-449v-180z m1 496v-180h937v180h-937z" horiz-adv-x="1000" />

<glyph glyph-name="logo-facebook" unicode="&#xe813;" d="M570-100v411h138l20 160h-158v102a66 66 0 0 0 79 78l85 0v143a1134 1134 0 0 1-124 6 193 193 0 0 1-205-211v-118h-139v-160h139v-411h165z" horiz-adv-x="1000" />

<glyph glyph-name="logo-instagram" unicode="&#xe814;" d="M789 408h-66a231 231 0 1 0-446 0h-65v-318a29 29 0 0 1 28-28h520a29 29 0 0 1 29 28v318z m0 202a29 29 0 0 1-29 29h-87a29 29 0 0 1-29-29v-87a29 29 0 0 1 29-29h87a29 29 0 0 1 29 29v87z m-289-116a144 144 0 1 1 144-144 144 144 0 0 1-144 144m289-519h-577a87 87 0 0 0-87 87v577a87 87 0 0 0 87 86h577a87 87 0 0 0 86-86v-577a87 87 0 0 0-86-87" horiz-adv-x="1000" />

<glyph glyph-name="logo-pinterest" unicode="&#xe815;" d="M523 834c-265 0-398-189-398-347 0-96 36-181 114-213a19 19 0 0 1 28 14c2 10 9 35 11 45a27 27 0 0 1-8 31 161 161 0 0 0-37 109 264 264 0 0 0 274 266c150 0 232-91 232-213 0-160-71-296-176-296a86 86 0 0 0-88 108 1194 1194 0 0 1 49 197 75 75 0 0 1-75 84c-60 0-107-62-107-144a214 214 0 0 1 17-89s-61-258-71-303a625 625 0 0 1-2-211 7 7 0 0 1 13-4 594 594 0 0 1 101 183c7 24 39 153 39 153a160 160 0 0 1 136-70c179 0 300 163 300 382 0 165-140 318-352 318z" horiz-adv-x="1000" />

<glyph glyph-name="logo-twitter" unicode="&#xe816;" d="M950 629a369 369 0 0 0-106-29 185 185 0 0 1 81 102 370 370 0 0 0-117-45 185 185 0 0 1-315-168 524 524 0 0 0-380 193 185 185 0 0 1 57-247 184 184 0 0 0-84 24l0-3a185 185 0 0 1 148-181 185 185 0 0 0-83-3 185 185 0 0 1 172-128 371 371 0 0 0-229-79 375 375 0 0 0-44 2 523 523 0 0 1 283-83 522 522 0 0 1 525 526q0 12 0 24a375 375 0 0 1 92 95z" horiz-adv-x="1000" />

<glyph glyph-name="logo-youtube" unicode="&#xe817;" d="M990 549a215 215 0 0 1-40 99 143 143 0 0 1-100 42c-140 10-350 10-350 10h0s-210 0-350-10a143 143 0 0 1-100-42 215 215 0 0 1-40-99 1498 1498 0 0 1-10-161v-76a1498 1498 0 0 1 10-161 215 215 0 0 1 40-98 170 170 0 0 1 110-43c80-8 340-10 340-10s210 0 350 10a143 143 0 0 1 100 43 215 215 0 0 1 40 98 1500 1500 0 0 1 10 161v76a1500 1500 0 0 1-10 161z m-593-328l0 280 270-141z" horiz-adv-x="1000" />

<glyph glyph-name="star" unicode="&#xe818;" d="M440 790l120-336 320 0-262-196 94-348-272 208-272-208 94 348-262 196 320 0z" horiz-adv-x="880" />

<glyph glyph-name="magnifier" unicode="&#xe819;" d="M1130-104l-14-14c-47-36-115-27-152 20l-218 218c-59-36-126-55-195-55-214-3-390 168-393 382-3 214 168 390 382 393 214 3 390-168 393-382 0-2 0-3 0-5 0-63-15-125-44-180l218-225c47-36 57-104 23-152z m-577 771c-117 1-212-94-213-211 0-116 94-212 211-212 56 0 109 21 149 60l0 0 6 6c81 84 78 218-6 298-40 38-92 59-147 59z" horiz-adv-x="1294" />

<glyph glyph-name="menu" unicode="&#xe81a;" d="M141 78h1111c49 0 88-39 88-87 0-49-39-88-88-88l0 0h-1111c-49 0-88 39-88 88-4 44 39 87 88 87l0 0z m0 359h1111c49 0 88-38 88-87s-39-87-88-87h-1111c-49 0-92 39-92 87 0 49 38 87 92 87-5 0 0 0 0 0l0 0z m0 365h1111c49 0 88-39 88-88s-39-87-88-87h-1111c-49-5-92 34-92 82 0 49 38 93 92 93-5 0 0 0 0 0l0 0z" horiz-adv-x="1388" />

<glyph glyph-name="news" unicode="&#xe81b;" d="M289 741v-648c0-15-13-28-26-28-15 0-25 13-25 28v496h-94v-557c0-43 33-78 76-78h785c43 0 76 35 76 78v709h-792z m136-137h233v-278h-233v278z m514-463h-514v94h517v-94z m0 185h-187v94h187v-94z m0 185h-187v93h187v-93z" horiz-adv-x="1223" />

<glyph glyph-name="phone" unicode="&#xe81c;" d="M618 219a234 234 0 0 1 50 39l99-107s-79-101-142-89c-78 14-223 186-223 186-107 104-163 216-169 263-8 62 108 128 108 128l93-113a276 276 0 0 1-46-43c-29-37 13-94 13-94 48-58 72-87 72-87s96-110 146-84" horiz-adv-x="1000" />

<glyph glyph-name="pin" unicode="&#xe81d;" d="M500 731a271 271 0 0 1-271-271c0-149 271-491 271-491s271 342 271 491a271 271 0 0 1-271 271z m-2-368a94 94 0 1 0 93 94 94 94 0 0 0-93-94z" horiz-adv-x="1000" />

<glyph glyph-name="play" unicode="&#xe81e;" d="M58-144a37 37 0 0 0-58 36l4 916a37 37 0 0 0 58 36l914-469c32-16 32-42 0-58z" horiz-adv-x="1000" />

<glyph glyph-name="plus" unicode="&#xe81f;" d="M873 436l-287 0 0 287a86 86 0 1 1-172 0l0-287-287 0a86 86 0 0 1 0-172l287 0 0-287a86 86 0 1 1 172 0l0 287h287a86 86 0 0 1 0 172z" horiz-adv-x="1000" />

<glyph glyph-name="snowflake" unicode="&#xe820;" d="M934 293l-66 38-118-80-174 99 175 100 118-80 63 36 2 3-116 79 132 76-38 66-134-77-10 142-66-38 10-142-174-99v197l128 62v77l-128-63v136h-76v-134l-127 62-1-4v-72l128-62v-199l-171 98 9 142-66 38-10-142-136 78-38-66 135-77-117-79 2-3 63-36 118 80 173-99-171-98-119 80-66-38 118-80-136-78 38-66 134 77 10-140 4 0 62 36-9 142 173 99v-201l-128-63v-72l1-3 127 62v-132h76v134l128-63v76l-128 63v199l176-100-10-142 62-36 4 0 10 140 132-76 38 66-134 77z" horiz-adv-x="1000" />

<glyph glyph-name="steering-wheel" unicode="&#xe821;" d="M500-100a450 450 0 1 0 450 450 450 450 0 0 0-450-450z m1 362a87 87 0 1 1-87 87 87 87 0 0 1 87-87z m-340 41a341 341 0 0 1 161-244 121 121 0 0 1 22-6 84 84 0 0 1 59 5 23 23 0 0 1 11 17c-1 3-1 6-1 8-2 11-10 68-13 93a52 52 0 0 1-23 39h0a181 181 0 0 0-42 57 51 51 0 0 1-38 16c-16 2-110 12-129 13a17 17 0 0 0-3 2 29 29 0 0 1-4 0z m338 389a341 341 0 0 1-332-262 757 757 0 0 1 176 23 34 34 0 0 1 5 3c4 2 7 5 10 8l1 0c2 2 4 4 6 6a182 182 0 0 0 15 15c1 1 2 2 3 3a32 32 0 0 0 4 3 181 181 0 0 0 251-24 139 139 0 0 1 12-11 625 625 0 0 1 181-26 341 341 0 0 1-332 262z m335-389a17 17 0 0 0-3-2c-20-1-113-11-130-13a56 56 0 0 1-36-14 182 182 0 0 0-52-66 48 48 0 0 1-14-32c-2-19-8-58-11-79a1 1 0 0 0 1-1 38 38 0 0 1 9-38 84 84 0 0 1 60-5 111 111 0 0 1 13 4 341 341 0 0 1 166 246c-1 0-2 0-2 0z" horiz-adv-x="1000" />

<glyph glyph-name="tag" unicode="&#xe822;" d="M974 806h-404l-546-526 405-404 545 526v404z m-229-229a67 67 0 1 0 95 0 67 67 0 0 0-95 0z" horiz-adv-x="1000" />

<glyph glyph-name="wheel" unicode="&#xe823;" d="M500-100a450 450 0 1 0 450 450 450 450 0 0 0-450-450z m61 149a311 311 0 0 1 170 101l-170 98v-199z m-377 305a308 308 0 0 1 23-114l184 106-189 109a308 308 0 0 1-18-101z m264 307a312 312 0 0 1-190-108l190-110v218z m0-412l-181-104a312 312 0 0 1 181-98v202z m55 146a48 48 0 1 1 49-48 48 48 0 0 1-49 48z m58 264v-215l179 104a312 312 0 0 1-179 111z m232-211l-177-102 173-99a304 304 0 0 1 4 201z" horiz-adv-x="1000" />

<glyph glyph-name="x-thick" unicode="&#xe824;" d="M791 814l-291-290-291 290a123 123 0 0 1-173-173l291-291-291-291a123 123 0 0 1 173-173l291 291 291-291a123 123 0 1 1 173 173l-291 291 291 291a123 123 0 1 1-173 173z" horiz-adv-x="1000" />

<glyph glyph-name="x-thin" unicode="&#xe825;" d="M948 2l-348 348 348 349a70 70 0 0 1-99 99l-349-348-348 348a70 70 0 1 1-100-99l348-349-348-348a70 70 0 0 1 100-100l348 348 349-348a70 70 0 1 1 99 100z" horiz-adv-x="1000" />
</font>
</defs>
</svg>
